999
DXF generated by OpenJsCad
  0
SECTION
  2
HEADER
  0
ENDSEC
  0
SECTION
  2
TABLES
  0
TABLE
  2
LTYPE
  70
1
  0
LTYPE
  2
CONTINUOUS
  3
Solid Line
  72
65
  73
0
  40
0.0
  0
ENDTAB
  0
TABLE
  2
LAYER
  70
1
  0
LAYER
  2
OpenJsCad
  62
7
  6
continuous
  0
ENDTAB
  0
TABLE
  2
STYLE
  70
0
  0
ENDTAB
  0
TABLE
  2
VIEW
  70
0
  0
ENDTAB
  0
ENDSEC
  0
SECTION
  2
BLOCKS
  0
ENDSEC
  0
SECTION
  2
ENTITIES
  0
LWPOLYLINE
  8
OpenJsCad
  90
395
  70
1
 10
20.26161897833122
 20
-10.057060910531533
 30
0.0
 10
20.70703037428825
 20
-9.219363910188287
 30
0.0
 10
21.031522167955398
 20
-8.327830034289477
 30
0.0
 10
20.575241969455995
 20
-7.679049044227534
 30
0.0
 10
19.64130960453962
 20
-6.681665128893996
 30
0.0
 10
18.86531480677388
 20
-6.055924901482332
 30
0.0
 10
18.32692632576021
 20
-5.733939279462238
 30
0.0
 10
18.089416465197612
 20
-5.633700466184048
 30
0.0
 10
17.661408766074928
 20
-5.51996262275686
 30
0.0
 10
16.91609565728038
 20
-5.138511402868365
 30
0.0
 10
16.616925780261766
 20
-4.711265859220478
 30
0.0
 10
17.096561526759324
 20
-2.454757084665829
 30
0.0
 10
17.543643227165596
 20
-2.186132210456167
 30
0.0
 10
18.379670820900923
 20
-2.140805333126655
 30
0.0
 10
18.81693665889678
 20
-2.210987057653108
 30
0.0
 10
19.074683511577774
 20
-2.216018308485969
 30
0.0
 10
19.69748921387405
 20
-2.140852129501463
 30
0.0
 10
20.514567955090573
 20
-1.9237233859603293
 30
0.0
 10
20.35045732920054
 20
-1.9798525257485036
 30
0.0
 10
19.452601148529897
 20
-2.5827711511665683
 30
0.0
 10
18.283869483487884
 20
-3.9216509231043415
 30
0.0
 10
18.10237486342213
 20
-4.291828571497062
 30
0.0
 10
18.348272900785187
 20
-5.102445765128062
 30
0.0
 10
18.747589645648198
 20
-5.8495148493908395
 30
0.0
 10
19.13768084766774
 20
-5.982933898215646
 30
0.0
 10
20.910829899337124
 20
-6.103246778407691
 30
0.0
 10
21.972037941756348
 20
-5.8946944330620115
 30
0.0
 10
22.31843125094272
 20
-5.72486105085466
 30
0.0
 10
23.299341626920953
 20
-4.868607157859617
 30
0.0
 10
24.264903523869105
 20
-4.770523998962988
 30
0.0
 10
25.896142669267544
 20
-6.40176314436142
 30
0.0
 10
25.798059510370912
 20
-7.36732504130957
 30
0.0
 10
24.94180561737587
 20
-8.348235417287803
 30
0.0
 10
24.771972235168512
 20
-8.694628726474175
 30
0.0
 10
24.563419889822832
 20
-9.755836768893426
 30
0.0
 10
24.683732770014874
 20
-11.528985820562774
 30
0.0
 10
24.817151818839687
 20
-11.919077022582327
 30
0.0
 10
25.56422090310246
 20
-12.318393767445338
 30
0.0
 10
26.374838096733466
 20
-12.564291804808398
 30
0.0
 10
26.745015745126175
 20
-12.382797184742648
 30
0.0
 10
28.083895517063972
 20
-11.21406551970061
 30
0.0
 10
28.68681414248202
 20
-10.316209339029985
 30
0.0
 10
28.811660864134684
 20
-9.95118194491599
 30
0.0
 10
28.899806308570966
 20
-8.65211063217136
 30
0.0
 10
29.513206406782345
 20
-7.90000000040797
 30
0.0
 10
31.82012692967871
 20
-7.900000000407966
 30
0.0
 10
32.43352702789009
 20
-8.652110632171357
 30
0.0
 10
32.521672472326365
 20
-9.951181944915986
 30
0.0
 10
32.64651919397903
 20
-10.316209339029985
 30
0.0
 10
33.249437819397095
 20
-11.214065519700629
 30
0.0
 10
34.58831759133487
 20
-12.382797184742643
 30
0.0
 10
34.95849523972759
 20
-12.564291804808395
 30
0.0
 10
35.769112433358586
 20
-12.31839376744534
 30
0.0
 10
36.51618151762136
 20
-11.919077022582327
 30
0.0
 10
36.649600566446175
 20
-11.528985820562786
 30
0.0
 10
36.76991344663821
 20
-9.755836768893403
 30
0.0
 10
36.56136110129254
 20
-8.694628726474177
 30
0.0
 10
36.39152771908519
 20
-8.348235417287807
 30
0.0
 10
35.53527382609014
 20
-7.367325041309574
 30
0.0
 10
35.43719066719351
 20
-6.4017631443614205
 30
0.0
 10
37.068429812591944
 20
-4.7705239989629815
 30
0.0
 10
38.033991709540096
 20
-4.868607157859616
 30
0.0
 10
39.01490208551833
 20
-5.724861050854658
 30
0.0
 10
39.3612953947047
 20
-5.894694433062012
 30
0.0
 10
40.42250343712395
 20
-6.103246778407694
 30
0.0
 10
42.1956524887933
 20
-5.982933898215652
 30
0.0
 10
42.585743690812855
 20
-5.8495148493908395
 30
0.0
 10
42.98506043567586
 20
-5.102445765128071
 30
0.0
 10
43.230958473038925
 20
-4.291828571497062
 30
0.0
 10
43.049463852973176
 20
-3.9216509231043526
 30
0.0
 10
41.88073218793114
 20
-2.582771151166555
 30
0.0
 10
40.982876007260515
 20
-1.9798525257485062
 30
0.0
 10
40.61784861314652
 20
-1.8550058040958413
 30
0.0
 10
39.318777300401884
 20
-1.7668603596595611
 30
0.0
 10
38.5666666686385
 20
-1.1534602614481817
 30
0.0
 10
38.56666666863849
 20
1.1534602614481844
 30
0.0
 10
39.318777300401884
 20
1.766860359659559
 30
0.0
 10
40.61784861314651
 20
1.8550058040958382
 30
0.0
 10
40.982876007260515
 20
1.9798525257485025
 30
0.0
 10
41.88073218793116
 20
2.5827711511665674
 30
0.0
 10
43.04946385297317
 20
3.92165092310434
 30
0.0
 10
43.230958473038925
 20
4.29182857149706
 30
0.0
 10
42.98506043567587
 20
5.102445765128063
 30
0.0
 10
42.585743690812855
 20
5.8495148493908395
 30
0.0
 10
42.195652488793314
 20
5.982933898215645
 30
0.0
 10
40.42250343712393
 20
6.103246778407689
 30
0.0
 10
39.361295394704705
 20
5.8946944330620115
 30
0.0
 10
39.01490208551833
 20
5.724861050854659
 30
0.0
 10
38.0339917095401
 20
4.868607157859617
 30
0.0
 10
37.068429812591944
 20
4.770523998962987
 30
0.0
 10
35.437190667193505
 20
6.40176314436142
 30
0.0
 10
35.53527382609015
 20
7.36732504130957
 30
0.0
 10
36.39152771908519
 20
8.348235417287801
 30
0.0
 10
36.56136110129254
 20
8.694628726474175
 30
0.0
 10
36.76991344663822
 20
9.755836768893426
 30
0.0
 10
36.64960056644618
 20
11.528985820562776
 30
0.0
 10
36.51618151762137
 20
11.919077022582327
 30
0.0
 10
35.7691124333586
 20
12.318393767445336
 30
0.0
 10
34.95849523972759
 20
12.564291804808397
 30
0.0
 10
34.58831759133488
 20
12.382797184742646
 30
0.0
 10
33.24943781939708
 20
11.214065519700608
 30
0.0
 10
32.64651919397903
 20
10.316209339029985
 30
0.0
 10
32.52167247232637
 20
9.951181944915989
 30
0.0
 10
32.43352702789009
 20
8.65211063217136
 30
0.0
 10
31.820126929678707
 20
7.900000000407969
 30
0.0
 10
29.51320640678234
 20
7.900000000407966
 30
0.0
 10
28.899806308570966
 20
8.652110632171357
 30
0.0
 10
28.811660864134687
 20
9.951181944915987
 30
0.0
 10
28.686814142482024
 20
10.316209339029985
 30
0.0
 10
28.083895517063958
 20
11.214065519700629
 30
0.0
 10
26.74501574512619
 20
12.382797184742643
 30
0.0
 10
26.374838096733466
 20
12.564291804808397
 30
0.0
 10
25.564220903102452
 20
12.318393767445338
 30
0.0
 10
24.817151818839676
 20
11.91907702258232
 30
0.0
 10
24.68373277001487
 20
11.52898582056278
 30
0.0
 10
24.56341988982283
 20
9.7558367688934
 30
0.0
 10
24.77197223516851
 20
8.694628726474171
 30
0.0
 10
24.94180561737586
 20
8.348235417287803
 30
0.0
 10
25.798059510370905
 20
7.36732504130957
 30
0.0
 10
25.896142669267533
 20
6.401763144361416
 30
0.0
 10
24.2649035238691
 20
4.770523998962977
 30
0.0
 10
23.299341626920953
 20
4.86860715785961
 30
0.0
 10
22.318431250942716
 20
5.724861050854652
 30
0.0
 10
21.972037941756348
 20
5.894694433062007
 30
0.0
 10
20.910829899337095
 20
6.1032467784076845
 30
0.0
 10
19.137680847667745
 20
5.9829338982156415
 30
0.0
 10
18.747589645648194
 20
5.849514849390831
 30
0.0
 10
18.34827290078519
 20
5.102445765128068
 30
0.0
 10
18.102374863422128
 20
4.291828571497059
 30
0.0
 10
18.283869483487877
 20
3.92165092310435
 30
0.0
 10
19.452601148529915
 20
2.582771151166555
 30
0.0
 10
20.35045732920054
 20
1.9798525257485053
 30
0.0
 10
20.51456795508839
 20
1.9237233859610798
 30
0.0
 10
19.69748921387405
 20
2.140852129501499
 30
0.0
 10
19.07468351157778
 20
2.2160183084860017
 30
0.0
 10
18.816936658896825
 20
2.2109870576531443
 30
0.0
 10
18.379670820900976
 20
2.14080533312636
 30
0.0
 10
17.543643227165617
 20
2.1861322104562406
 30
0.0
 10
17.09656152675933
 20
2.45475708466586
 30
0.0
 10
16.616925780261745
 20
4.711265859220503
 30
0.0
 10
16.91609565728033
 20
5.138511402868423
 30
0.0
 10
17.661408766075
 20
5.519962622756567
 30
0.0
 10
18.08941646519756
 20
5.633700466184064
 30
0.0
 10
18.326926325760187
 20
5.7339392794622634
 30
0.0
 10
18.865314806773867
 20
6.055924901482363
 30
0.0
 10
19.64130960453954
 20
6.68166512889417
 30
0.0
 10
20.57524196945662
 20
7.679049044228423
 30
0.0
 10
21.031522167955398
 20
8.327830034289475
 30
0.0
 10
20.707030374288255
 20
9.219363910188282
 30
0.0
 10
20.26161897833122
 20
10.057060910531535
 30
0.0
 10
19.47416969680714
 20
10.152097859323154
 30
0.0
 10
18.108046271477985
 20
10.125430959029389
 30
0.0
 10
17.12378878982365
 20
9.967456378263497
 30
0.0
 10
16.52425463018399
 20
9.78280619900269
 30
0.0
 10
16.29083755776985
 20
9.673374833035268
 30
0.0
 10
15.919920816725757
 20
9.431408598306144
 30
0.0
 10
15.13773550407868
 20
9.13277370420532
 30
0.0
 10
14.620046467894706
 20
9.19633022784546
 30
0.0
 10
13.264072606325378
 20
11.06266813554094
 30
0.0
 10
13.363601470346751
 20
11.57465971272648
 30
0.0
 10
13.889328686733132
 20
12.226278893879055
 30
0.0
 10
14.234071827476226
 20
12.504269998856017
 30
0.0
 10
14.410277083319869
 20
12.692446674788446
 30
0.0
 10
14.771156083577887
 20
13.205577500649321
 30
0.0
 10
15.22555112669604
 20
14.092845162153118
 30
0.0
 10
15.673068210830598
 20
15.383865222498736
 30
0.0
 10
15.826017911592594
 20
16.162142025213228
 30
0.0
 10
15.166960411574236
 20
16.844616045013268
 30
0.0
 10
14.419334788181155
 20
17.428725198578405
 30
0.0
 10
13.661309064401232
 20
17.195261294095644
 30
0.0
 10
12.424139620119353
 20
16.615247412417276
 30
0.0
 10
11.589229719275314
 20
16.070596867725275
 30
0.0
 10
11.116632005090816
 20
15.65805802370757
 30
0.0
 10
10.947904645291436
 20
15.463148219934096
 30
0.0
 10
10.70747187539842
 20
15.091235635181528
 30
0.0
 10
10.114375790326793
 20
14.500275655852876
 30
0.0
 10
9.61559255577859
 20
14.347774328593264
 30
0.0
 10
7.61774077843866
 20
15.501234590041431
 30
0.0
 10
7.500419184682181
 20
16.00944420577175
 30
0.0
 10
7.715657496865249
 20
16.81856047199306
 30
0.0
 10
7.917526858301286
 20
17.212737650999063
 30
0.0
 10
8.001960019916076
 20
17.45631473278557
 30
0.0
 10
8.122930281791026
 20
18.07186578104867
 30
0.0
 10
8.17715653925716
 20
19.067244237396796
 30
0.0
 10
8.060878573197256
 20
20.428671345770976
 30
0.0
 10
7.884051383456312
 20
21.20187283152679
 30
0.0
 10
7.004385206189336
 20
21.557281037122806
 30
0.0
 10
6.083816617610435
 20
21.78680456479335
 30
0.0
 10
5.4862839856637295
 20
21.265207837074268
 30
0.0
 10
4.5919863586770235
 20
20.232136643414172
 30
0.0
 10
4.050787545417549
 20
19.394985161968172
 30
0.0
 10
3.786842714886157
 20
18.82588936712197
 30
0.0
 10
3.711979561050788
 20
18.57920280131486
 30
0.0
 10
3.643603772486499
 20
18.141650931162335
 30
0.0
 10
3.342148616207985
 20
17.360548215734646
 30
0.0
 10
2.9485153358523686
 20
17.018357902489534
 30
0.0
 10
0.6542323649575159
 20
17.25949675962849
 30
0.0
 10
0.34034628281690177
 20
17.676050354404403
 30
0.0
 10
0.2078790312415226
 20
18.50276015267426
 30
0.0
 10
0.2319695668526353
 20
18.944966590471918
 30
0.0
 10
0.2100313735441865
 20
19.201827387843302
 30
0.0
 10
0.0701760397775636
 20
19.813364290158212
 30
0.0
 10
-0.2851427009543028
 20
20.74474356351869
 30
0.0
 10
-0.9451102005247554
 20
21.94117460470653
 30
0.0
 10
-1.4211392532378428
 20
22.575607212301502
 30
0.0
 10
-2.3693118341876276
 20
22.542496296163762
 30
0.0
 10
-3.303648715883973
 20
22.377747494849686
 30
0.0
 10
-3.6373694355203345
 20
21.658206756674424
 30
0.0
 10
-4.034163061066981
 20
20.350705645573598
 30
0.0
 10
-4.188072595292463
 20
19.365804323798066
 30
0.0
 10
-4.197726083108363
 20
18.738553411125263
 30
0.0
 10
-4.165780511571182
 20
18.48274443158966
 30
0.0
 10
-4.050276523789441
 20
18.055209969420495
 30
0.0
 10
-4.007966416120168
 20
17.21902427348661
 30
0.0
 10
-4.228386972063625
 20
16.746312788117486
 30
0.0
 10
-6.422398767939222
 20
16.033435141870157
 30
0.0
 10
-6.878575583296326
 20
16.286306814884302
 30
0.0
 10
-7.335843607405566
 20
16.987664510659116
 30
0.0
 10
-7.493697370082185
 20
17.401438696833843
 30
0.0
 10
-7.618213605388614
 20
17.627169644417503
 30
0.0
 10
-7.9947122770427415
 20
18.128952114735633
 30
0.0
 10
-8.698138177730643
 20
18.835288267429362
 30
0.0
 10
-9.787680834519403
 20
19.659849445174707
 30
0.0
 10
-10.480602002402362
 20
20.04581401311637
 30
0.0
 10
-11.333333333911279
 20
19.629909153448317
 30
0.0
 10
-12.119883173695678
 20
19.099374587592695
 30
0.0
 10
-12.132088636839004
 20
18.30630496941415
 30
0.0
 10
-11.962769038331654
 20
16.950452761256614
 30
0.0
 10
-11.702776936831333
 20
15.988099985234154
 30
0.0
 10
-11.456469906189188
 20
15.411151335931525
 30
0.0
 10
-11.323239288814642
 20
15.190451639180758
 30
0.0
 10
-11.043827213495122
 20
14.846859177532657
 30
0.0
 10
-10.665067643869339
 20
14.100174604428119
 30
0.0
 10
-10.674162758820126
 20
13.578678057204321
 30
0.0
 10
-12.388538808198149
 20
12.035046928896978
 30
0.0
 10
-12.908129241160232
 20
12.080512870618179
 30
0.0
 10
-13.611132242285262
 20
12.535247346663844
 30
0.0
 10
-13.92363595362641
 20
12.849043965405558
 30
0.0
 10
-14.129200242651851
 20
13.004614131662995
 30
0.0
 10
-14.677242211481431
 20
13.309879422315708
 30
0.0
 10
-15.607146543472744
 20
13.669040516679447
 30
0.0
 10
-16.937872533936734
 20
13.97915771244699
 30
0.0
 10
-17.727873452071414
 20
14.049917460560211
 30
0.0
 10
-18.337718540100614
 20
13.323132385975482
 30
0.0
 10
-18.840479725093374
 20
12.518546301769971
 30
0.0
 10
-18.52905949628304
 20
11.789076745382504
 30
0.0
 10
-17.822903570523874
 20
10.619312604489323
 30
0.0
 10
-17.193964829601246
 20
9.845907911894718
 30
0.0
 10
-16.73428600372821
 20
9.419021188840624
 30
0.0
 10
-16.52280712462252
 20
9.271591757436699
 30
0.0
 10
-16.12779984796698
 20
9.07135155436814
 30
0.0
 10
-15.478081786895654
 20
8.543276650199113
 30
0.0
 10
-15.274278832852255
 20
8.06316653178304
 30
0.0
 10
-16.212587942177777
 20
5.955689766948576
 30
0.0
 10
-16.705750086554797
 20
5.785888503008121
 30
0.0
 10
-17.532932459219335
 20
5.915372037283319
 30
0.0
 10
-17.94605138852704
 20
6.074932802458792
 30
0.0
 10
-18.197119798206053
 20
6.1334426923335075
 30
0.0
 10
-18.821943628995466
 20
6.189407661318845
 30
0.0
 10
-19.817537485373247
 20
6.139291481260993
 30
0.0
 10
-21.159352196495153
 20
5.88134261457625
 30
0.0
 10
-21.90983452920303
 20
5.624662539580118
 30
0.0
 10
-22.171345617763567
 20
4.712664992109535
 30
0.0
 10
-22.303386171637463
 20
3.773147632948381
 30
0.0
 10
-21.72218763759873
 20
3.23341005167426
 30
0.0
 10
-20.601296159376695
 20
2.4519968249794624
 30
0.0
 10
-19.712160001066373
 20
2.001268913323379
 30
0.0
 10
-19.118592025006926
 20
1.798256709078
 30
0.0
 10
-18.865431503592767
 20
1.749589431064994
 30
0.0
 10
-18.423129372263407
 20
1.727324836811669
 30
0.0
 10
-17.61479497500905
 20
1.5091685499188696
 30
0.0
 10
-17.23333333421728
 20
1.1534602614481597
 30
0.0
 10
-17.233333334217267
 20
-1.1534602614481957
 30
0.0
 10
-17.614794975009016
 20
-1.5091685499189438
 30
0.0
 10
-18.42312937226341
 20
-1.7273248368113758
 30
0.0
 10
-18.86543150359272
 20
-1.7495894310650277
 30
0.0
 10
-19.11859202500691
 20
-1.7982567090780364
 30
0.0
 10
-19.71216000106637
 20
-2.0012689133234196
 30
0.0
 10
-20.601296159376652
 20
-2.4519968249796578
 30
0.0
 10
-21.722187637599525
 20
-3.233410051675009
 30
0.0
 10
-22.303386171637463
 20
-3.773147632948385
 30
0.0
 10
-22.171345617763567
 20
-4.712664992109532
 30
0.0
 10
-21.909834529203028
 20
-5.6246625395801155
 30
0.0
 10
-21.15935219649412
 20
-5.8813426145765995
 30
0.0
 10
-19.817537485373208
 20
-6.1392914812611785
 30
0.0
 10
-18.821943628995463
 20
-6.189407661318876
 30
0.0
 10
-18.197119798206057
 20
-6.133442692333539
 30
0.0
 10
-17.94605138852707
 20
-6.074932802458835
 30
0.0
 10
-17.532932459219452
 20
-5.915372037283039
 30
0.0
 10
-16.705750086554804
 20
-5.785888503008196
 30
0.0
 10
-16.212587942177777
 20
-5.955689766948606
 30
0.0
 10
-15.27427883285223
 20
-8.06316653178306
 30
0.0
 10
-15.478081786895595
 20
-8.543276650199159
 30
0.0
 10
-16.12779984796711
 20
-9.07135155436787
 30
0.0
 10
-16.522807124622464
 20
-9.271591757436703
 30
0.0
 10
-16.734286003728183
 20
-9.419021188840645
 30
0.0
 10
-17.193964829601224
 20
-9.845907911894745
 30
0.0
 10
-17.822903570523756
 20
-10.619312604489476
 30
0.0
 10
-18.529059496283466
 20
-11.789076745383506
 30
0.0
 10
-18.840479725093378
 20
-12.518546301769968
 30
0.0
 10
-18.337718540100628
 20
-13.323132385975468
 30
0.0
 10
-17.727873452071428
 20
-14.049917460560204
 30
0.0
 10
-16.937872533935664
 20
-13.979157712446886
 30
0.0
 10
-15.607146543472645
 20
-13.669040516679596
 30
0.0
 10
-14.677242211481424
 20
-13.309879422315728
 30
0.0
 10
-14.129200242651851
 20
-13.004614131663018
 30
0.0
 10
-13.923635953626434
 20
-12.849043965405606
 30
0.0
 10
-13.611132242285489
 20
-12.535247346663628
 30
0.0
 10
-12.908129241160214
 20
-12.080512870618241
 30
0.0
 10
-12.388538808198145
 20
-12.035046928897001
 30
0.0
 10
-10.674162758820106
 20
-13.578678057204323
 30
0.0
 10
-10.665067643869275
 20
-14.10017460442813
 30
0.0
 10
-11.04382721349536
 20
-14.846859177532455
 30
0.0
 10
-11.323239288814598
 20
-15.190451639180731
 30
0.0
 10
-11.456469906189165
 20
-15.411151335931528
 30
0.0
 10
-11.702776936831313
 20
-15.988099985234161
 30
0.0
 10
-11.962769038331494
 20
-16.950452761256702
 30
0.0
 10
-12.132088636839
 20
-18.30630496941523
 30
0.0
 10
-12.11988317369569
 20
-19.099374587592685
 30
0.0
 10
-11.333333333911284
 20
-19.629909153448317
 30
0.0
 10
-10.480602002402366
 20
-20.04581401311637
 30
0.0
 10
-9.787680834518454
 20
-19.659849445174178
 30
0.0
 10
-8.698138177730481
 20
-18.835288267429462
 30
0.0
 10
-7.994712277042714
 20
-18.12895211473565
 30
0.0
 10
-7.618213605388592
 20
-17.627169644417528
 30
0.0
 10
-7.493697370082177
 20
-17.4014386968339
 30
0.0
 10
-7.335843607405852
 20
-16.987664510659016
 30
0.0
 10
-6.878575583296274
 20
-16.286306814884355
 30
0.0
 10
-6.4223987679392005
 20
-16.03343514187018
 30
0.0
 10
-4.2283869720635945
 20
-16.746312788117482
 30
0.0
 10
-4.007966416120095
 20
-17.2190242734866
 30
0.0
 10
-4.050276523789732
 20
-18.05520996942041
 30
0.0
 10
-4.1657805115711435
 20
-18.482744431589623
 30
0.0
 10
-4.197726083108332
 20
-18.738553411125256
 30
0.0
 10
-4.188072595292431
 20
-19.36580432379807
 30
0.0
 10
-4.034163061066793
 20
-20.350705645573612
 30
0.0
 10
-3.6373694355198807
 20
-21.658206756675412
 30
0.0
 10
-3.3036487158839796
 20
-22.377747494849686
 30
0.0
 10
-2.3693118341876436
 20
-22.542496296163762
 30
0.0
 10
-1.4211392532378482
 20
-22.575607212301506
 30
0.0
 10
-0.945110200524105
 20
-21.941174604705658
 30
0.0
 10
-0.28514270095411437
 20
-20.74474356351871
 30
0.0
 10
0.07017603977759489
 20
-19.813364290158216
 30
0.0
 10
0.21003137354421525
 20
-19.201827387843316
 30
0.0
 10
0.23196956685266495
 20
-18.944966590471967
 30
0.0
 10
0.20787903124122156
 20
-18.502760152674284
 30
0.0
 10
0.34034628281697116
 20
-17.67605035440443
 30
0.0
 10
0.6542323649575448
 20
-17.2594967596285
 30
0.0
 10
2.948515335852395
 20
-17.01835790248952
 30
0.0
 10
3.3421486162080463
 20
-17.360548215734603
 30
0.0
 10
3.6436037724862
 20
-18.141650931162378
 30
0.0
 10
3.7119795610508075
 20
-18.57920280131481
 30
0.0
 10
3.786842714886183
 20
-18.825889367121956
 30
0.0
 10
4.050787545417578
 20
-19.394985161968165
 30
0.0
 10
4.591986358677202
 20
-20.232136643414112
 30
0.0
 10
5.486283985664547
 20
-21.265207837074986
 30
0.0
 10
6.083816617610431
 20
-21.78680456479335
 30
0.0
 10
7.004385206189318
 20
-21.55728103712281
 30
0.0
 10
7.884051383456296
 20
-21.201872831526796
 30
0.0
 10
8.060878573197487
 20
-20.428671345769917
 30
0.0
 10
8.177156539257334
 20
-19.067244237396746
 30
0.0
 10
8.122930281791051
 20
-18.071865781048665
 30
0.0
 10
8.0019600199161
 20
-17.45631473278558
 30
0.0
 10
7.917526858301323
 20
-17.2127376509991
 30
0.0
 10
7.715657496864976
 20
-16.81856047199321
 30
0.0
 10
7.50041918468225
 20
-16.009444205771754
 30
0.0
 10
7.617740778438683
 20
-15.501234590041435
 30
0.0
 10
9.6155925557786
 20
-14.347774328593244
 30
0.0
 10
10.114375790326825
 20
-14.500275655852818
 30
0.0
 10
10.707471875398157
 20
-15.091235635181693
 30
0.0
 10
10.947904645291425
 20
-15.463148219934046
 30
0.0
 10
11.116632005090828
 20
-15.65805802370755
 30
0.0
 10
11.589229719275332
 20
-16.07059686772526
 30
0.0
 10
12.424139620119485
 20
-16.61524741241715
 30
0.0
 10
13.661309064402264
 20
-17.195261294095978
 30
0.0
 10
14.419334788181143
 20
-17.428725198578416
 30
0.0
 10
15.166960411574234
 20
-16.84461604501327
 30
0.0
 10
15.826017911592594
 20
-16.16214202521323
 30
0.0
 10
15.67306821083039
 20
-15.383865222497667
 30
0.0
 10
15.225551126696185
 20
-14.09284516215299
 30
0.0
 10
14.771156083577912
 20
-13.205577500649296
 30
0.0
 10
14.4102770833199
 20
-12.692446674788432
 30
0.0
 10
14.234071827476283
 20
-12.504269998856024
 30
0.0
 10
13.889328686732949
 20
-12.226278893879293
 30
0.0
 10
13.36360147034682
 20
-11.574659712726447
 30
0.0
 10
13.264072606325408
 20
-11.062668135540925
 30
0.0
 10
14.620046467894714
 20
-9.196330227845424
 30
0.0
 10
15.137735504078691
 20
-9.13277370420524
 30
0.0
 10
15.919920816725586
 20
-9.431408598306387
 30
0.0
 10
16.290837557769827
 20
-9.673374833035215
 30
0.0
 10
16.524254630183997
 20
-9.782806199002655
 30
0.0
 10
17.12378878982366
 20
-9.967456378263464
 30
0.0
 10
18.10804627147806
 20
-10.125430959029208
 30
0.0
 10
19.47416969680822
 20
-10.152097859323023
 30
0.0
 10
20.26161897833122
 20
-10.057060910531533
 30
0.0
  0
LWPOLYLINE
  8
OpenJsCad
  90
12
  70
1
 10
20.73467164230127
 20
-1.853703920600407
 30
0.0
 10
21.9197694713584
 20
-1.3535444757594695
 30
0.0
 10
22.600485176098047
 20
-0.9464394255236803
 30
0.0
 10
22.666666667822568
 20
-2.1647806396960554e-15
 30
0.0
 10
22.600485176098047
 20
0.9464394255236779
 30
0.0
 10
21.919769471357462
 20
1.3535444757600295
 30
0.0
 10
20.734671642301805
 20
1.8537039206003723
 30
0.0
 10
22.014556036059172
 20
1.7668603596595596
 30
0.0
 10
22.766666667822555
 20
1.1534602614481804
 30
0.0
 10
22.766666667822562
 20
-1.1534602614481853
 30
0.0
 10
22.01455603605917
 20
-1.76686035965956
 30
0.0
 10
20.73467164230127
 20
-1.853703920600407
 30
0.0
  0
LWPOLYLINE
  8
OpenJsCad
  90
31
  70
1
 10
0.20791169081775937
 20
-0.9781476007338057
 30
0.0
 10
6.123233995736766e-17
 20
-1
 30
0.0
 10
-0.20791169081775893
 20
-0.9781476007338057
 30
0.0
 10
-0.4067366430758001
 20
-0.913545457642601
 30
0.0
 10
-0.5877852522924734
 20
-0.8090169943749473
 30
0.0
 10
-0.743144825477394
 20
-0.6691306063588585
 30
0.0
 10
-0.8660254037844386
 20
-0.5000000000000001
 30
0.0
 10
-0.9510565162951536
 20
-0.3090169943749473
 30
0.0
 10
-0.9945218953682734
 20
-0.10452846326765304
 30
0.0
 10
-0.9945218953682733
 20
0.10452846326765418
 30
0.0
 10
-0.9510565162951535
 20
0.3090169943749475
 30
0.0
 10
-0.8660254037844385
 20
0.5000000000000004
 30
0.0
 10
-0.743144825477394
 20
0.6691306063588585
 30
0.0
 10
-0.587785252292473
 20
0.8090169943749475
 30
0.0
 10
-0.40673664307580026
 20
0.9135454576426009
 30
0.0
 10
-0.20791169081775912
 20
0.9781476007338057
 30
0.0
 10
5.053215498074303e-16
 20
1
 30
0.0
 10
0.20791169081775926
 20
0.9781476007338057
 30
0.0
 10
0.4067366430758
 20
0.913545457642601
 30
0.0
 10
0.5877852522924732
 20
0.8090169943749473
 30
0.0
 10
0.7431448254773945
 20
0.6691306063588579
 30
0.0
 10
0.8660254037844387
 20
0.49999999999999983
 30
0.0
 10
0.9510565162951536
 20
0.3090169943749474
 30
0.0
 10
0.9945218953682734
 20
0.10452846326765339
 30
0.0
 10
0.9945218953682733
 20
-0.1045284632676534
 30
0.0
 10
0.9510565162951535
 20
-0.3090169943749474
 30
0.0
 10
0.8660254037844386
 20
-0.5000000000000001
 30
0.0
 10
0.7431448254773942
 20
-0.6691306063588582
 30
0.0
 10
0.5877852522924731
 20
-0.8090169943749475
 30
0.0
 10
0.4067366430758002
 20
-0.9135454576426009
 30
0.0
 10
0.20791169081775937
 20
-0.9781476007338057
 30
0.0
  0
LWPOLYLINE
  8
OpenJsCad
  90
31
  70
1
 10
30.38346354976811
 20
0.41206309431100785
 30
0.0
 10
30.47532495204798
 20
0.4619397662556434
 30
0.0
 10
30.575548905484453
 20
0.49162745378197725
 30
0.0
 10
30.67975514238446
 20
0.4998286624877787
 30
0.0
 10
30.78338935015848
 20
0.4861849601988383
 30
0.0
 10
30.881922216634674
 20
0.45129264217493037
 30
0.0
 10
30.971047382734888
 20
0.3966766701456176
 30
0.0
 10
31.04686965103054
 20
0.3247240241650917
 30
0.0
 10
31.106075224561508
 20
0.23857938012980398
 30
0.0
 10
31.146076535664623
 20
0.1420076723519609
 30
0.0
 10
31.16512533509709
 20
0.039229547863922354
 30
0.0
 10
31.16238909891743
 20
-0.06526309611002609
 30
0.0
 10
31.137987413776614
 20
-0.16690342961688567
 30
0.0
 10
31.092986750407572
 20
-0.2612492823579745
 30
0.0
 10
31.02935385373667
 20
-0.344177287846877
 30
0.0
 10
30.949869786692943
 20
-0.4120630943110079
 30
0.0
 10
30.858008384413072
 20
-0.46193976625564354
 30
0.0
 10
30.7577844309766
 20
-0.4916274537819773
 30
0.0
 10
30.65357819407659
 20
-0.49982866248777863
 30
0.0
 10
30.549943986302573
 20
-0.4861849601988383
 30
0.0
 10
30.45141111982638
 20
-0.4512926421749302
 30
0.0
 10
30.362285953726165
 20
-0.39667667014561747
 30
0.0
 10
30.286463685430512
 20
-0.32472402416509183
 30
0.0
 10
30.227258111899545
 20
-0.23857938012980412
 30
0.0
 10
30.18725680079643
 20
-0.14200767235196127
 30
0.0
 10
30.16820800136396
 20
-0.03922954786392241
 30
0.0
 10
30.170944237543623
 20
0.06526309611002593
 30
0.0
 10
30.19534592268444
 20
0.16690342961688556
 30
0.0
 10
30.24034658605348
 20
0.2612492823579745
 30
0.0
 10
30.303979482724383
 20
0.344177287846877
 30
0.0
 10
30.38346354976811
 20
0.41206309431100785
 30
0.0
  0
ENDSEC
  0
EOF
