999
DXF generated by OpenJsCad
  0
SECTION
  2
HEADER
  0
ENDSEC
  0
SECTION
  2
TABLES
  0
TABLE
  2
LTYPE
  70
1
  0
LTYPE
  2
CONTINUOUS
  3
Solid Line
  72
65
  73
0
  40
0.0
  0
ENDTAB
  0
TABLE
  2
LAYER
  70
1
  0
LAYER
  2
OpenJsCad
  62
7
  6
continuous
  0
ENDTAB
  0
TABLE
  2
STYLE
  70
0
  0
ENDTAB
  0
TABLE
  2
VIEW
  70
0
  0
ENDTAB
  0
ENDSEC
  0
SECTION
  2
BLOCKS
  0
ENDSEC
  0
SECTION
  2
ENTITIES
  0
LWPOLYLINE
  8
OpenJsCad
  90
286
  70
1
 10
10.138012603642377
 20
-5.014983367236389
 30
0.0
 10
10.353515187144126
 20
-4.6096819550941435
 30
0.0
 10
10.510513459965892
 20
-4.178332745622964
 30
0.0
 10
10.277832032730833
 20
-3.847484974391478
 30
0.0
 10
9.812068996506957
 20
-3.3500779049533187
 30
0.0
 10
9.4254418568035
 20
-3.038312729441062
 30
0.0
 10
9.157758317882486
 20
-2.878223400223344
 30
0.0
 10
9.040625127505665
 20
-2.8287884337295703
 30
0.0
 10
8.78056119067768
 20
-2.7596796037044844
 30
0.0
 10
8.408434615973947
 20
-2.5619783463861565
 30
0.0
 10
8.260345321908757
 20
-2.3415215726257634
 30
0.0
 10
8.498583571528426
 20
-1.2206987302355885
 30
0.0
 10
8.7235377215498
 20
-1.0795347883039637
 30
0.0
 10
9.143904609272026
 20
-1.0502832165046965
 30
0.0
 10
9.409593930989168
 20
-1.0929266914027982
 30
0.0
 10
9.536707437319352
 20
-1.0954079629603022
 30
0.0
 10
9.846362714744618
 20
-1.058035787463793
 30
0.0
 10
10.326370502937987
 20
-0.9304795524487688
 30
0.0
 10
10.95417989068156
 20
-0.6655184773874996
 30
0.0
 10
11.301312863451633
 20
-0.4579140614263461
 30
0.0
 10
11.333333333911284
 20
-1.0823903198480277e-15
 30
0.0
 10
11.301312863451635
 20
0.4579140614263453
 30
0.0
 10
10.954179890683443
 20
0.6655184773863747
 30
0.0
 10
10.326370502937847
 20
0.9304795524484304
 30
0.0
 10
9.84636271474461
 20
1.0580357874638182
 30
0.0
 10
9.536707437319349
 20
1.095407962960332
 30
0.0
 10
9.409593930989175
 20
1.0929266914028062
 30
0.0
 10
9.143904609272019
 20
1.0502832165047267
 30
0.0
 10
8.723537721549802
 20
1.0795347883038233
 30
0.0
 10
8.498583571528425
 20
1.2206987302356325
 30
0.0
 10
8.26034532190874
 20
2.3415215726258047
 30
0.0
 10
8.408434615974002
 20
2.5619783463860277
 30
0.0
 10
8.780561190677675
 20
2.759679603704514
 30
0.0
 10
9.040625127505654
 20
2.828788433729574
 30
0.0
 10
9.157758317882477
 20
2.878223400223372
 30
0.0
 10
9.425441856803499
 20
3.0383127294410888
 30
0.0
 10
9.812068996507223
 20
3.3500779049530665
 30
0.0
 10
10.277832032729572
 20
3.8474849743896837
 30
0.0
 10
10.510513459965892
 20
4.1783327456229635
 30
0.0
 10
10.353515187144128
 20
4.609681955094141
 30
0.0
 10
10.138012603642379
 20
5.01498336723639
 30
0.0
 10
9.73645052993673
 20
5.063447738378563
 30
0.0
 10
9.055148737279863
 20
5.050148642090487
 30
0.0
 10
8.564758007909314
 20
4.9714403047628295
 30
0.0
 10
8.266673202576515
 20
4.879633337879235
 30
0.0
 10
8.15155846032743
 20
4.825664862664351
 30
0.0
 10
7.926183851157708
 20
4.678642527056791
 30
0.0
 10
7.530261904217464
 20
4.534386550830406
 30
0.0
 10
7.267339514422892
 20
4.5718491329394695
 30
0.0
 10
6.593818323249651
 20
5.498871523524515
 30
0.0
 10
6.639436777065915
 20
5.760502150143279
 30
0.0
 10
6.898978973320968
 20
6.092468749531081
 30
0.0
 10
7.108450107975534
 20
6.261380339933958
 30
0.0
 10
7.195349589661213
 20
6.354183789669708
 30
0.0
 10
7.374776474369939
 20
6.6093093732209915
 30
0.0
 10
7.601171620731948
 20
7.0513764580861995
 30
0.0
 10
7.824353645145878
 20
7.695223320791208
 30
0.0
 10
7.902350794234882
 20
8.092107861992735
 30
0.0
 10
7.583480205787118
 20
8.422308022506634
 30
0.0
 10
7.22175786371023
 20
8.704916489157652
 30
0.0
 10
6.835200419687745
 20
8.585860885426495
 30
0.0
 10
6.2182094915024555
 20
8.296601152354993
 30
0.0
 10
5.802228833122677
 20
8.025237629251041
 30
0.0
 10
5.567256070739824
 20
7.820125778601622
 30
0.0
 10
5.484044477291295
 20
7.724001739382238
 30
0.0
 10
5.337953898058503
 20
7.498022040547735
 30
0.0
 10
5.0349353933641705
 20
7.20520168510981
 30
0.0
 10
4.7795064335668105
 20
7.132485286612598
 30
0.0
 10
3.7871602335417967
 20
7.705416632326331
 30
0.0
 10
3.7224200020135902
 20
7.962982799621628
 30
0.0
 10
3.824500616220695
 20
8.371814700222716
 30
0.0
 10
3.947159486534553
 20
8.611322702509128
 30
0.0
 10
3.9887995496886295
 20
8.731448075934647
 30
0.0
 10
4.048945241776845
 20
9.037496382680315
 30
0.0
 10
4.0759626172558105
 20
9.53342796187217
 30
0.0
 10
4.017973430295116
 20
10.212387646118753
 30
0.0
 10
3.9277998855774605
 20
10.606684014531922
 30
0.0
 10
3.502192603094668
 20
10.778640518561403
 30
0.0
 10
3.0567955815320484
 20
10.889690468419913
 30
0.0
 10
2.752082061028347
 20
10.62370068528675
 30
0.0
 10
2.306085333984489
 20
10.10849595112206
 30
0.0
 10
2.036441581494988
 20
9.691398460646699
 30
0.0
 10
1.9052097873386076
 20
9.408447428591408
 30
0.0
 10
1.8682893831514795
 20
9.286788545008037
 30
0.0
 10
1.826743222196213
 20
9.020925425836186
 30
0.0
 10
1.6690228120461357
 20
8.630171990831357
 30
0.0
 10
1.465253269894201
 20
8.459849937635777
 30
0.0
 10
0.32566773418394884
 20
8.579625203886422
 30
0.0
 10
0.1617629914890372
 20
8.78859138161772
 30
0.0
 10
0.0887313580785185
 20
9.20359783369695
 30
0.0
 10
0.1033691310535497
 20
9.472289138409684
 30
0.0
 10
0.09254983046858475
 20
9.59896566715494
 30
0.0
 10
0.023014593367778616
 20
9.903018164497086
 30
0.0
 10
-0.1540173517017622
 20
10.36706316257636
 30
0.0
 10
-0.48315089279635326
 20
10.963737370803194
 30
0.0
 10
-0.7259033062380511
 20
11.287268142259313
 30
0.0
 10
-1.1846559170938138
 20
11.271248148081881
 30
0.0
 10
-1.6367144268090732
 20
11.191538035960221
 30
0.0
 10
-1.8068962878634738
 20
10.824606123370097
 30
0.0
 10
-2.0047819279069525
 20
10.172539967137368
 30
0.0
 10
-2.0814649200641524
 20
9.681828454605531
 30
0.0
 10
-2.0862645765809997
 20
9.369963045116155
 30
0.0
 10
-2.07050991821143
 20
9.243805243376622
 30
0.0
 10
-2.0003279522249824
 20
8.98402885246285
 30
0.0
 10
-1.9854789760709122
 20
8.562907156686967
 30
0.0
 10
-2.102355495551176
 20
8.324429679117811
 30
0.0
 10
-3.1921356750127843
 20
7.970338634246497
 30
0.0
 10
-3.4268643098346097
 20
8.09457267188593
 30
0.0
 10
-3.662380357974512
 20
8.443995289663544
 30
0.0
 10
-3.758294686265683
 20
8.695410729233897
 30
0.0
 10
-3.819702595228289
 20
8.806734890658703
 30
0.0
 10
-4.00689548731559
 20
9.056218139576647
 30
0.0
 10
-4.357366321346382
 20
9.408138960658972
 30
0.0
 10
-4.900734037235264
 20
9.819357301648628
 30
0.0
 10
-5.254091221780491
 20
10.016181066578145
 30
0.0
 10
-5.666666666955639
 20
9.814954576724158
 30
0.0
 10
-6.047221641671139
 20
9.558267005151801
 30
0.0
 10
-6.05344585344626
 20
9.153838824263321
 30
0.0
 10
-5.969004181591238
 20
8.47765940821025
 30
0.0
 10
-5.839467227429044
 20
7.998182352112833
 30
0.0
 10
-5.717004842091084
 20
7.711326927698384
 30
0.0
 10
-5.651299244723493
 20
7.602484037831103
 30
0.0
 10
-5.481524251297534
 20
7.393712073158827
 30
0.0
 10
-5.296673411715067
 20
7.015037883582039
 30
0.0
 10
-5.306447896515676
 20
6.749639904010885
 30
0.0
 10
-6.157989826357605
 20
5.982908106492015
 30
0.0
 10
-6.422955639902948
 20
6.000928810300925
 30
0.0
 10
-6.780233238452718
 20
6.224349248758348
 30
0.0
 10
-6.97011520929423
 20
6.4150168096470415
 30
0.0
 10
-7.071493741301503
 20
6.491739644892789
 30
0.0
 10
-7.343976936739367
 20
6.643515725164455
 30
0.0
 10
-7.807287068599917
 20
6.822462062184408
 30
0.0
 10
-8.470935744865171
 20
6.977121148978424
 30
0.0
 10
-8.873799033156812
 20
7.013205290337258
 30
0.0
 10
-9.168859270050307
 20
6.661566192987741
 30
0.0
 10
-9.412109297404326
 20
6.272284775022924
 30
0.0
 10
-9.253299637139062
 20
5.900289632426387
 30
0.0
 10
-8.901131385577779
 20
5.316914520485699
 30
0.0
 10
-8.587772601277116
 20
4.931577859734252
 30
0.0
 10
-8.35922303304513
 20
4.719332329275707
 30
0.0
 10
-8.254927591380987
 20
4.646624275745343
 30
0.0
 10
-8.014915209236259
 20
4.524955306640155
 30
0.0
 10
-7.692024895706362
 20
4.254204830787302
 30
0.0
 10
-7.593007248606885
 20
4.007776070946956
 30
0.0
 10
-8.059071593143894
 20
2.960978414111251
 30
0.0
 10
-8.308459589111918
 20
2.8696698406881214
 30
0.0
 10
-8.725722195517212
 20
2.9284566763051028
 30
0.0
 10
-8.976739491127018
 20
3.025408205074068
 30
0.0
 10
-9.100559376999852
 20
3.054263638921692
 30
0.0
 10
-9.411218055864953
 20
3.0820890874257083
 30
0.0
 10
-9.907256954716159
 20
3.0571194930361014
 30
0.0
 10
-10.576435706172575
 20
2.9284773644941
 30
0.0
 10
-10.959146375766933
 20
2.797582606427175
 30
0.0
 10
-11.085672808881784
 20
2.3563324960547676
 30
0.0
 10
-11.14955774928769
 20
1.9017675253742692
 30
0.0
 10
-10.853173849982374
 20
1.6265267606943936
 30
0.0
 10
-10.294172108757902
 20
1.236826809517144
 30
0.0
 10
-9.851174074899543
 20
1.0122587534292564
 30
0.0
 10
-9.55605562042848
 20
0.9113222973330107
 30
0.0
 10
-9.431203963825858
 20
0.8873209631268933
 30
0.0
 10
-9.162454514279224
 20
0.8737926596749644
 30
0.0
 10
-8.757355395377626
 20
0.7577811145118599
 30
0.0
 10
-8.566666667108647
 20
0.5729313457137178
 30
0.0
 10
-8.56666666710864
 20
-0.5729313457137647
 30
0.0
 10
-8.757355395377655
 20
-0.7577811145117256
 30
0.0
 10
-9.162454514279224
 20
-0.8737926596749984
 30
0.0
 10
-9.431203963825848
 20
-0.8873209631269027
 30
0.0
 10
-9.556055620428477
 20
-0.9113222973330438
 30
0.0
 10
-9.851174074899545
 20
-1.0122587534292864
 30
0.0
 10
-10.294172108758108
 20
-1.236826809516846
 30
0.0
 10
-10.853173849980765
 20
-1.6265267606929052
 30
0.0
 10
-11.149557749287688
 20
-1.9017675253742714
 30
0.0
 10
-11.085672808881784
 20
-2.356332496054766
 30
0.0
 10
-10.959146375766931
 20
-2.7975826064271736
 30
0.0
 10
-10.57643570617465
 20
-2.9284773644933884
 30
0.0
 10
-9.907256954716091
 20
-3.05711949303574
 30
0.0
 10
-9.41121805586494
 20
-3.08208908742573
 30
0.0
 10
-9.100559376999842
 20
-3.0542636389217197
 30
0.0
 10
-8.976739491127024
 20
-3.025408205074076
 30
0.0
 10
-8.7257221955172
 20
-2.92845667630513
 30
0.0
 10
-8.308459589111948
 20
-2.869669840687984
 30
0.0
 10
-8.059071593143884
 20
-2.9609784141112927
 30
0.0
 10
-7.593007248606861
 20
-4.007776070946993
 30
0.0
 10
-7.692024895706443
 20
-4.254204830787187
 30
0.0
 10
-8.014915209236246
 20
-4.524955306640183
 30
0.0
 10
-8.254927591380975
 20
-4.646624275745343
 30
0.0
 10
-8.359223033045115
 20
-4.7193323292757325
 30
0.0
 10
-8.58777260127711
 20
-4.9315778597342765
 30
0.0
 10
-8.901131385578092
 20
-5.316914520485508
 30
0.0
 10
-9.2532996371382
 20
-5.90028963242437
 30
0.0
 10
-9.412109297404328
 20
-6.272284775022921
 30
0.0
 10
-9.168859270050314
 20
-6.661566192987734
 30
0.0
 10
-8.873799033156821
 20
-7.013205290337254
 30
0.0
 10
-8.470935744867361
 20
-6.977121148978616
 30
0.0
 10
-7.807287068600006
 20
-6.822462062184048
 30
0.0
 10
-7.343976936739351
 20
-6.643515725164468
 30
0.0
 10
-7.071493741301489
 20
-6.491739644892807
 30
0.0
 10
-6.970115209294238
 20
-6.415016809647048
 30
0.0
 10
-6.780233238452699
 20
-6.224349248758364
 30
0.0
 10
-6.422955639903037
 20
-6.000928810300808
 30
0.0
 10
-6.157989826357582
 20
-5.9829081064920455
 30
0.0
 10
-5.306447896515644
 20
-6.749639904010906
 30
0.0
 10
-5.296673411715192
 20
-7.015037883581964
 30
0.0
 10
-5.4815242512975155
 20
-7.393712073158845
 30
0.0
 10
-5.651299244723487
 20
-7.602484037831096
 30
0.0
 10
-5.7170048420910655
 20
-7.711326927698399
 30
0.0
 10
-5.839467227429031
 20
-7.998182352112851
 30
0.0
 10
-5.969004181591607
 20
-8.4776594082102
 30
0.0
 10
-6.0534458534462985
 20
-9.153838824261124
 30
0.0
 10
-6.047221641671145
 20
-9.558267005151796
 30
0.0
 10
-5.666666666955642
 20
-9.814954576724158
 30
0.0
 10
-5.254091221780493
 20
-10.016181066578145
 30
0.0
 10
-4.900734037237181
 20
-9.819357301649696
 30
0.0
 10
-4.357366321346606
 20
-9.40813896065868
 30
0.0
 10
-4.006895487315564
 20
-9.05621813957665
 30
0.0
 10
-3.819702595228263
 20
-8.806734890658715
 30
0.0
 10
-3.758294686265682
 20
-8.69541072923391
 30
0.0
 10
-3.662380357974484
 20
-8.443995289663555
 30
0.0
 10
-3.4268643098347327
 20
-8.094572671885862
 30
0.0
 10
-3.192135675012746
 20
-7.970338634246517
 30
0.0
 10
-2.1023554955511337
 20
-8.32442967911782
 30
0.0
 10
-1.9854789760710525
 20
-8.56290715668695
 30
0.0
 10
-2.000327952224955
 20
-8.984028852462863
 30
0.0
 10
-2.0705099182114224
 20
-9.243805243376613
 30
0.0
 10
-2.0862645765809718
 20
-9.369963045116162
 30
0.0
 10
-2.0814649200641298
 20
-9.681828454605544
 30
0.0
 10
-2.004781927907305
 20
-10.172539967137475
 30
0.0
 10
-1.806896287864398
 20
-10.824606123368108
 30
0.0
 10
-1.6367144268090763
 20
-11.191538035960223
 30
0.0
 10
-1.1846559170938218
 20
-11.271248148081881
 30
0.0
 10
-0.7259033062380535
 20
-11.287268142259315
 30
0.0
 10
-0.48315089279767043
 20
-10.96373737080495
 30
0.0
 10
-0.15401735170208555
 20
-10.367063162576185
 30
0.0
 10
0.023014593367803367
 20
-9.90301816449708
 30
0.0
 10
0.09254983046861312
 20
-9.598965667154943
 30
0.0
 10
0.10336913105355552
 20
-9.472289138409694
 30
0.0
 10
0.0887313580785475
 20
-9.203597833696946
 30
0.0
 10
0.16176299148889636
 20
-8.788591381617707
 30
0.0
 10
0.32566773418399203
 20
-8.579625203886426
 30
0.0
 10
1.4652532698942424
 20
-8.459849937635767
 30
0.0
 10
1.6690228120460007
 20
-8.6301719908314
 30
0.0
 10
1.826743222196242
 20
-9.020925425836184
 30
0.0
 10
1.8682893831514835
 20
-9.286788545008028
 30
0.0
 10
1.905209787338636
 20
-9.408447428591403
 30
0.0
 10
2.0364415814950134
 20
-9.691398460646699
 30
0.0
 10
2.3060853339842087
 20
-10.1084959511223
 30
0.0
 10
2.752082061026693
 20
-10.623700685285309
 30
0.0
 10
3.0567955815320467
 20
-10.889690468419913
 30
0.0
 10
3.502192603094659
 20
-10.778640518561405
 30
0.0
 10
3.927799885577453
 20
-10.606684014531925
 30
0.0
 10
4.017973430294623
 20
-10.212387646120895
 30
0.0
 10
4.075962617255441
 20
-9.533427961872142
 30
0.0
 10
4.0489452417768605
 20
-9.0374963826803
 30
0.0
 10
3.9887995496886517
 20
-8.731448075934638
 30
0.0
 10
3.9471594865345576
 20
-8.611322702509137
 30
0.0
 10
3.8245006162207167
 20
-8.371814700222703
 30
0.0
 10
3.7224200020134526
 20
-7.962982799621675
 30
0.0
 10
3.7871602335418335
 20
-7.70541663232632
 30
0.0
 10
4.77950643356684
 20
-7.132485286612573
 30
0.0
 10
5.03493539336406
 20
-7.205201685109907
 30
0.0
 10
5.337953898058527
 20
-7.498022040547723
 30
0.0
 10
5.484044477291292
 20
-7.724001739382231
 30
0.0
 10
5.5672560707398455
 20
-7.82012577860161
 30
0.0
 10
5.802228833122698
 20
-8.025237629251034
 30
0.0
 10
6.218209491502295
 20
-8.29660115235533
 30
0.0
 10
6.835200419685645
 20
-8.585860885425856
 30
0.0
 10
7.2217578637102235
 20
-8.704916489157657
 30
0.0
 10
7.583480205787117
 20
-8.422308022506636
 30
0.0
 10
7.9023507942348825
 20
-8.092107861992737
 30
0.0
 10
7.824353645146302
 20
-7.695223320793359
 30
0.0
 10
7.601171620731603
 20
-7.051376458086319
 30
0.0
 10
7.37477647436995
 20
-6.609309373220968
 30
0.0
 10
7.195349589661234
 20
-6.354183789669687
 30
0.0
 10
7.108450107975544
 20
-6.261380339933959
 30
0.0
 10
6.898978973320986
 20
-6.092468749531056
 30
0.0
 10
6.6394367770658125
 20
-5.760502150143374
 30
0.0
 10
6.593818323249682
 20
-5.498871523524484
 30
0.0
 10
7.267339514422911
 20
-4.571849132939429
 30
0.0
 10
7.530261904217405
 20
-4.534386550830533
 30
0.0
 10
7.926183851157727
 20
-4.678642527056765
 30
0.0
 10
8.151558460327424
 20
-4.825664862664339
 30
0.0
 10
8.26667320257653
 20
-4.879633337879208
 30
0.0
 10
8.564758007909331
 20
-4.971440304762808
 30
0.0
 10
9.055148737279854
 20
-5.050148642090852
 30
0.0
 10
9.736450529934553
 20
-5.063447738378823
 30
0.0
 10
10.138012603642377
 20
-5.014983367236389
 30
0.0
  0
LWPOLYLINE
  8
OpenJsCad
  90
31
  70
1
 10
0.20791169081775937
 20
-0.9781476007338057
 30
0.0
 10
6.123233995736766e-17
 20
-1
 30
0.0
 10
-0.20791169081775893
 20
-0.9781476007338057
 30
0.0
 10
-0.4067366430758001
 20
-0.913545457642601
 30
0.0
 10
-0.5877852522924734
 20
-0.8090169943749473
 30
0.0
 10
-0.743144825477394
 20
-0.6691306063588585
 30
0.0
 10
-0.8660254037844386
 20
-0.5000000000000001
 30
0.0
 10
-0.9510565162951536
 20
-0.3090169943749473
 30
0.0
 10
-0.9945218953682734
 20
-0.10452846326765304
 30
0.0
 10
-0.9945218953682733
 20
0.10452846326765418
 30
0.0
 10
-0.9510565162951535
 20
0.3090169943749475
 30
0.0
 10
-0.8660254037844385
 20
0.5000000000000004
 30
0.0
 10
-0.743144825477394
 20
0.6691306063588585
 30
0.0
 10
-0.587785252292473
 20
0.8090169943749475
 30
0.0
 10
-0.40673664307580026
 20
0.9135454576426009
 30
0.0
 10
-0.20791169081775912
 20
0.9781476007338057
 30
0.0
 10
5.053215498074303e-16
 20
1
 30
0.0
 10
0.20791169081775926
 20
0.9781476007338057
 30
0.0
 10
0.4067366430758
 20
0.913545457642601
 30
0.0
 10
0.5877852522924732
 20
0.8090169943749473
 30
0.0
 10
0.7431448254773945
 20
0.6691306063588579
 30
0.0
 10
0.8660254037844387
 20
0.49999999999999983
 30
0.0
 10
0.9510565162951536
 20
0.3090169943749474
 30
0.0
 10
0.9945218953682734
 20
0.10452846326765339
 30
0.0
 10
0.9945218953682733
 20
-0.1045284632676534
 30
0.0
 10
0.9510565162951535
 20
-0.3090169943749474
 30
0.0
 10
0.8660254037844386
 20
-0.5000000000000001
 30
0.0
 10
0.7431448254773942
 20
-0.6691306063588582
 30
0.0
 10
0.5877852522924731
 20
-0.8090169943749475
 30
0.0
 10
0.4067366430758002
 20
-0.9135454576426009
 30
0.0
 10
0.20791169081775937
 20
-0.9781476007338057
 30
0.0
  0
LWPOLYLINE
  8
OpenJsCad
  90
121
  70
1
 10
9.365094010303757
 20
2.9084793493942107
 30
0.0
 10
9.174136450392595
 20
2.551222882564034
 30
0.0
 10
9.056545365606247
 20
2.1635770267136447
 30
0.0
 10
9.152506451141967
 20
1.9678541509173506
 30
0.0
 10
9.734692902730707
 20
1.3009109278975721
 30
0.0
 10
10.180869688817793
 20
1.0012991411188215
 30
0.0
 10
10.36024765514837
 20
0.9399482633649692
 30
0.0
 10
11.056557507252961
 20
0.8927017875349046
 30
0.0
 10
11.43333333391128
 20
0.5729313457137564
 30
0.0
 10
11.43333333391128
 20
-0.5729313457137585
 30
0.0
 10
11.056557507252963
 20
-0.8927017875349041
 30
0.0
 10
10.360247655148372
 20
-0.9399482633649717
 30
0.0
 10
10.1808696888178
 20
-1.0012991411188215
 30
0.0
 10
9.734692902730703
 20
-1.300910927897576
 30
0.0
 10
9.152506451141967
 20
-1.9678541509173486
 30
0.0
 10
9.056545365606247
 20
-2.1635770267136425
 30
0.0
 10
9.174136450392593
 20
-2.551222882564031
 30
0.0
 10
9.365094010303759
 20
-2.908479349394211
 30
0.0
 10
9.57134571732498
 20
-2.9790215877907746
 30
0.0
 10
10.454613780822008
 20
-3.0389536756211397
 30
0.0
 10
10.981965938026878
 20
-2.9353165707256146
 30
0.0
 10
11.152186936106178
 20
-2.8518588160293064
 30
0.0
 10
11.677960657782942
 20
-2.392901701245754
 30
0.0
 10
12.170493247634958
 20
-2.3525928070632416
 30
0.0
 10
12.980740527052022
 20
-3.162840086480306
 30
0.0
 10
12.94043163286951
 20
-3.6553726763323193
 30
0.0
 10
12.481474518085959
 20
-4.181146398009085
 30
0.0
 10
12.398016763389652
 20
-4.351367396088379
 30
0.0
 10
12.294379658494123
 20
-4.87871955329326
 30
0.0
 10
12.354311746324488
 20
-5.761987616790281
 30
0.0
 10
12.424853984721048
 20
-5.9682393238115035
 30
0.0
 10
12.78211045155123
 20
-6.159196883722669
 30
0.0
 10
13.169756307401618
 20
-6.276787968509015
 30
0.0
 10
13.365479183197913
 20
-6.180826882973296
 30
0.0
 10
14.032422406217691
 20
-5.598640431384556
 30
0.0
 10
14.332034192996442
 20
-5.152463645297471
 30
0.0
 10
14.393385070750293
 20
-4.973085678966893
 30
0.0
 10
14.44063154658036
 20
-4.276775826862303
 30
0.0
 10
14.760401988401506
 20
-3.900000000203983
 30
0.0
 10
15.906264679829022
 20
-3.9000000002039834
 30
0.0
 10
16.226035121650167
 20
-4.2767758268623
 30
0.0
 10
16.273281597480235
 20
-4.973085678966891
 30
0.0
 10
16.334632475234084
 20
-5.1524636452974635
 30
0.0
 10
16.63424426201284
 20
-5.59864043138456
 30
0.0
 10
17.30118748503261
 20
-6.180826882973295
 30
0.0
 10
17.496910360828906
 20
-6.276787968509016
 30
0.0
 10
17.884556216679293
 20
-6.15919688372267
 30
0.0
 10
18.241812683509472
 20
-5.968239323811504
 30
0.0
 10
18.31235492190604
 20
-5.761987616790283
 30
0.0
 10
18.372287009736404
 20
-4.878719553293255
 30
0.0
 10
18.268649904840878
 20
-4.351367396088384
 30
0.0
 10
18.18519215014457
 20
-4.181146398009085
 30
0.0
 10
17.726235035361018
 20
-3.655372676332322
 30
0.0
 10
17.685926141178506
 20
-3.162840086480305
 30
0.0
 10
18.496173420595568
 20
-2.352592807063241
 30
0.0
 10
18.988706010447583
 20
-2.392901701245753
 30
0.0
 10
19.51447973212435
 20
-2.8518588160293046
 30
0.0
 10
19.68470073020364
 20
-2.93531657072561
 30
0.0
 10
20.212052887408525
 20
-3.0389536756211415
 30
0.0
 10
21.095320950905545
 20
-2.9790215877907755
 30
0.0
 10
21.301572657926766
 20
-2.9084793493942147
 30
0.0
 10
21.49253021783793
 20
-2.5512228825640353
 30
0.0
 10
21.61012130262428
 20
-2.1635770267136465
 30
0.0
 10
21.51416021708856
 20
-1.9678541509173517
 30
0.0
 10
20.93197376549982
 20
-1.3009109278975726
 30
0.0
 10
20.485796979412733
 20
-1.001299141118822
 30
0.0
 10
20.306419013082156
 20
-0.9399482633649696
 30
0.0
 10
19.610109160977565
 20
-0.8927017875349053
 30
0.0
 10
19.233333334319248
 20
-0.572931345713757
 30
0.0
 10
19.233333334319248
 20
0.5729313457137581
 30
0.0
 10
19.610109160977565
 20
0.8927017875349036
 30
0.0
 10
20.306419013082156
 20
0.9399482633649712
 30
0.0
 10
20.485796979412726
 20
1.0012991411188208
 30
0.0
 10
20.931973765499823
 20
1.3009109278975752
 30
0.0
 10
21.51416021708856
 20
1.967854150917348
 30
0.0
 10
21.61012130262428
 20
2.1635770267136416
 30
0.0
 10
21.492530217837935
 20
2.5512228825640313
 30
0.0
 10
21.30157265792677
 20
2.908479349394211
 30
0.0
 10
21.095320950905545
 20
2.9790215877907746
 30
0.0
 10
20.212052887408518
 20
3.038953675621139
 30
0.0
 10
19.684700730203648
 20
2.935316570725614
 30
0.0
 10
19.51447973212435
 20
2.8518588160293064
 30
0.0
 10
18.988706010447586
 20
2.3929017012457545
 30
0.0
 10
18.496173420595568
 20
2.3525928070632416
 30
0.0
 10
17.685926141178506
 20
3.1628400864803066
 30
0.0
 10
17.726235035361015
 20
3.6553726763323198
 30
0.0
 10
18.18519215014457
 20
4.181146398009085
 30
0.0
 10
18.268649904840874
 20
4.35136739608838
 30
0.0
 10
18.372287009736404
 20
4.87871955329326
 30
0.0
 10
18.31235492190604
 20
5.761987616790281
 30
0.0
 10
18.24181268350948
 20
5.968239323811504
 30
0.0
 10
17.8845562166793
 20
6.159196883722668
 30
0.0
 10
17.49691036082891
 20
6.276787968509015
 30
0.0
 10
17.301187485032614
 20
6.180826882973295
 30
0.0
 10
16.634244262012835
 20
5.598640431384555
 30
0.0
 10
16.334632475234084
 20
5.15246364529747
 30
0.0
 10
16.273281597480235
 20
4.973085678966893
 30
0.0
 10
16.226035121650167
 20
4.276775826862303
 30
0.0
 10
15.90626467982902
 20
3.900000000203983
 30
0.0
 10
14.760401988401505
 20
3.900000000203984
 30
0.0
 10
14.44063154658036
 20
4.2767758268623
 30
0.0
 10
14.393385070750291
 20
4.973085678966891
 30
0.0
 10
14.332034192996442
 20
5.1524636452974635
 30
0.0
 10
14.032422406217687
 20
5.598640431384561
 30
0.0
 10
13.365479183197916
 20
6.180826882973295
 30
0.0
 10
13.169756307401622
 20
6.276787968509017
 30
0.0
 10
12.782110451551226
 20
6.159196883722669
 30
0.0
 10
12.424853984721047
 20
5.968239323811503
 30
0.0
 10
12.354311746324484
 20
5.761987616790281
 30
0.0
 10
12.294379658494119
 20
4.8787195532932515
 30
0.0
 10
12.398016763389645
 20
4.351367396088381
 30
0.0
 10
12.481474518085953
 20
4.181146398009083
 30
0.0
 10
12.940431632869505
 20
3.6553726763323207
 30
0.0
 10
12.980740527052019
 20
3.162840086480303
 30
0.0
 10
12.170493247634955
 20
2.352592807063239
 30
0.0
 10
11.677960657782942
 20
2.3929017012457505
 30
0.0
 10
11.152186936106176
 20
2.851858816029301
 30
0.0
 10
10.981965938026882
 20
2.9353165707256075
 30
0.0
 10
10.454613780822001
 20
3.0389536756211375
 30
0.0
 10
9.57134571732498
 20
2.979021587790772
 30
0.0
 10
9.365094010303757
 20
2.9084793493942107
 30
0.0
  0
LWPOLYLINE
  8
OpenJsCad
  90
31
  70
1
 10
15.050130215652846
 20
0.41206309431100785
 30
0.0
 10
15.141991617932717
 20
0.4619397662556434
 30
0.0
 10
15.24221557136919
 20
0.49162745378197725
 30
0.0
 10
15.3464218082692
 20
0.4998286624877787
 30
0.0
 10
15.450056016043217
 20
0.4861849601988383
 30
0.0
 10
15.548588882519411
 20
0.45129264217493037
 30
0.0
 10
15.637714048619623
 20
0.3966766701456176
 30
0.0
 10
15.71353631691528
 20
0.3247240241650917
 30
0.0
 10
15.772741890446246
 20
0.23857938012980398
 30
0.0
 10
15.81274320154936
 20
0.1420076723519609
 30
0.0
 10
15.831792000981828
 20
0.039229547863922354
 30
0.0
 10
15.829055764802169
 20
-0.06526309611002609
 30
0.0
 10
15.804654079661352
 20
-0.16690342961688567
 30
0.0
 10
15.75965341629231
 20
-0.2612492823579745
 30
0.0
 10
15.696020519621406
 20
-0.344177287846877
 30
0.0
 10
15.61653645257768
 20
-0.4120630943110079
 30
0.0
 10
15.524675050297807
 20
-0.46193976625564354
 30
0.0
 10
15.424451096861336
 20
-0.4916274537819773
 30
0.0
 10
15.320244859961326
 20
-0.49982866248777863
 30
0.0
 10
15.21661065218731
 20
-0.4861849601988383
 30
0.0
 10
15.118077785711115
 20
-0.4512926421749302
 30
0.0
 10
15.028952619610903
 20
-0.39667667014561747
 30
0.0
 10
14.953130351315247
 20
-0.32472402416509183
 30
0.0
 10
14.89392477778428
 20
-0.23857938012980412
 30
0.0
 10
14.853923466681167
 20
-0.14200767235196127
 30
0.0
 10
14.834874667248698
 20
-0.03922954786392241
 30
0.0
 10
14.837610903428358
 20
0.06526309611002593
 30
0.0
 10
14.862012588569174
 20
0.16690342961688556
 30
0.0
 10
14.907013251938217
 20
0.2612492823579745
 30
0.0
 10
14.97064614860912
 20
0.344177287846877
 30
0.0
 10
15.050130215652846
 20
0.41206309431100785
 30
0.0
  0
ENDSEC
  0
EOF
